<svg xmlns="http://www.w3.org/2000/svg" viewBox="0 0 64 84" fill="none" stroke="#3a3530" stroke-width="2.2" stroke-linecap="round" stroke-linejoin="round">
  <path d="M32 8c-14 1-22 12-21 24 1 10 9 16 11 24h20c2-8 10-14 11-24 1-12-7-23-21-24z" opacity=".85"/>
  <path d="M24 60c0 6 4 10 8 10s8-4 8-10" opacity=".6"/>
  <line x1="24" y1="56" x2="40" y2="56" opacity=".5"/>
  <line x1="26" y1="62" x2="38" y2="62" opacity=".5"/>
  <path d="M26 3c-1-2 1-4 3-2" opacity=".4" stroke-width="1.5"/>
  <path d="M35 2c0-2 2-3 3-1" opacity=".4" stroke-width="1.5"/>
  <path d="M22 5c-2-1-1-3 1-2" opacity=".3" stroke-width="1.5"/>
</svg>
