<svg xmlns="http://www.w3.org/2000/svg" viewBox="485.54 247.47 332.20 182.55" width="332.20" height="182.55">
  <path d="M 533.8176250554329 347.2351754878992 Q 533.8176250554329 347.2351754878992 534.8273086702609 348.3293852781542 535.8369922850889 349.4235950684092 536.6205457667747 350.7874042817174 537.4040992484606 352.15121349502556 538.4015604970075 354.94501822639637 539.3990217455545 357.7388229577672 540.0956063827903 360.54497058162326 540.7921910200262 363.3511182054793 541.2152405100605 366.58129858398445 541.6382900000948 369.8114789624897 542.0169741853831 372.93903942266695 542.3956583706715 376.0665998828443 542.7825898282786 378.1093591405076 543.1695212858855 380.1521183981709 543.4979049428235 381.81014027670057 543.8262885997616 383.46816215523023 544.3120739573922 386.1502507944635 544.7978593150227 388.83233943369675 545.1163979025569 390.7890255695214 545.4349364900909 392.74571170534614 545.6853415504261 394.79417155682916 545.9357466107613 396.84263140831223 546.0706437570301 397.7767265688159 546.2055409032989 398.7108217293195 546.1928475557604 399.05518853108276 546.1801542082219 399.399555332846 546.08541478774 399.730877015558 545.9906753672581 400.06219869827 545.8193961334024 400.3612188301645 545.6481168995467 400.66023896205894 545.4102526094366 400.90957847902075 545.1723883193264 401.1589179959826 544.8817636566789 401.34408527357084 544.5911389940316 401.52925255115906 544.2646450778948 401.6394856585002 543.938151161758 401.7497187658413 543.5947638338782 401.77861094955733 543.2513765059983 401.8075031332734 542.9110534540057 401.7533751782894 542.5707304020129 401.6992472233053 542.2532512176792 401.56524504890797 541.9357720333456 401.4312428745107 541.6595886217812 401.2251546933722 541.3834052102167 401.0190665122337 541.1645693642779 400.75287017912467 540.9457335183392 400.4866738460157 540.7969639876742 400.17584070432383 540.648194457009 399.8650075626319 540.5781377337298 399.5276032491566 540.5080810104506 399.1901989356813 538.7512399975806 396.8813703515149 536.9943989847104 394.5725417673484 536.8450917190769 394.13055315771305 536.6957844534434 393.68856454807764 536.6954254151749 393.22203859841363 536.6950663769063 392.7555126487496 536.8436931574043 392.31329474913764 536.9923199379024 391.8710768495257 537.2743712740152 391.49946733078946 537.5564226101279 391.12785781205315 537.94236765251 390.86576428889964 538.3283126948921 390.6036707657461 538.7777428957268 390.47853449923537 539.2271730965613 390.3533982327247 539.6930329951828 390.3783210229933 540.1588928938042 390.40324381326195 540.592406835852 390.57561623758977 541.0259207778996 390.7479886619176 541.3816997392046 391.04976328197563 541.7374787005095 391.3515379020336 541.9782725299067 391.75111883544093 542.2190663593037 392.1506997688483 542.3196638792916 392.60625078639816 542.4202613992795 393.06180180394796 542.3701300229603 393.525626593849 542.3199986466411 393.98945138375 542.124387142349 394.41298736806175 541.9287756380568 394.83652335237355 541.6081645819273 395.17542620173595 541.2875535257979 395.51432905109834 540.8755109800411 395.73311554772147 540.4634684342842 395.9519020443446 540.0031353622094 396.027665184278 539.5428022901345 396.1034283242114 539.0823756859041 396.02823568670453 538.6219490816737 395.9530430491976 538.2096357322914 395.73476732324633 537.7973223829092 395.51649159729504 537.4762916048956 395.17798630902564 537.1552608268819 394.8394810207563 536.9591246274388 394.4161877632074 536.7629884279955 393.99289450565846 536.7122823189795 393.52913219463386 536.6615762099636 393.06536988360926 536.7616091343739 392.6096945554947 536.8616420587841 392.15401922738016 537.1019405430288 391.7541402093158 537.3422390272734 391.3542611912514 537.6976437566193 391.0520459219864 538.0530484859653 390.74983065272136 538.4863484914323 390.57692115072484 538.9196484968993 390.40401164872833 539.3854771535349 390.378511584503 539.8513058101705 390.3530115202776 540.3008907346581 390.47759075727924 540.7504756591456 390.60216999428087 541.1367451912124 390.8637850535096 541.5230147232793 391.12540011273836 541.8055263409527 391.4966598284334 542.0880379586262 391.8679195441284 542.0878351119579 391.8675375212025 542.0876322652896 391.8671554982766 543.1150589893739 393.8403280771706 544.1424857134582 395.8135006560647 545.1740013097049 397.26201875739383 546.2055169059514 398.71053685872295 546.1928579951565 399.05490492809906 546.1801990843616 399.39927299747524 546.0854927965215 399.73060415247267 545.9907865086815 400.0619353074701 545.8195371776953 400.36097256579285 545.6482878467093 400.66000982411555 545.4104484917401 400.90937312625965 545.1726091367709 401.1587364284038 544.8820029923043 401.3439327675324 544.5913968478377 401.529129106661 544.2649139566442 401.6393948628425 543.9384310654507 401.749660619024 543.595046628506 401.77858714132833 543.2516621915614 401.8075136636327 542.9113337284748 401.75341974122443 542.5710052653883 401.69932581881613 542.2535126824246 401.5653553930072 541.936020099461 401.4313849671983 541.6598160804593 401.22532440543137 541.3836120614577 401.01926384366436 541.1647495969798 400.75308939547097 540.9458871325021 400.4869149472775 540.7970865192667 400.17609668409284 540.6482859060314 399.8652784209081 540.5781954426711 399.52788111479214 540.5081049793109 399.19048380867616 540.4390524423084 398.2508656773276 540.3699999053058 397.31124754597903 540.2737881142701 395.3446829605798 540.1775763232345 393.3781183751805 540.03571029867 391.3772189607921 539.8938442741054 389.37631954640364 539.6315543165923 386.7941213872438 539.3692643590792 384.211923228084 539.1442146315568 382.5534687293107 538.9191649040343 380.89501423053736 538.584251150962 378.80786030665587 538.2493373978898 376.7207063827744 537.6545881141167 373.6776703404199 537.0598388303434 370.6346342980654 536.068120035967 366.18075155866774 535.0764012415906 361.72686881927007 534.5481737202261 359.1285992211717 534.0199461988617 356.5303296230734 533.2534581580583 354.37373394603327 532.4869701172549 352.21713826899315 531.585649093411 351.0502160096876 530.6843280695671 349.88329375038205 530.5486525007464 349.67658754278335 530.4129769319258 349.46988133518465 530.3307136755486 349.2367117126244 530.2484504191715 349.0035420900642 530.2243806195636 348.75746088196104 530.2003108199557 348.51137967385796 530.2358334150013 348.26668913158903 530.2713560100467 348.02199858932005 530.3644064248526 347.7929201386986 530.4574568396584 347.5638416880772 530.6026269797442 347.36368937941666 530.7477971198298 347.1635370707561 530.9366496898328 347.00394376563986 531.1255022598358 346.8443504605237 531.3470611395144 346.7345917293436 531.5686200191928 346.6248329981636 531.81000819605 346.5712880235328 532.0513963729072 346.5177430489021 532.2985843547626 346.52352386726204 532.545772336618 346.529304685622 532.784393546352 346.5940753155379 533.0230147560861 346.65884594545383 533.2392005177776 346.7788419148718 533.4553862794689 346.8988378842897 533.6365718664908 347.06708502182914 533.8177574535126 347.2353321593685 533.8176912544727 347.23525382363385 Z" fill="#000000" />
  <path d="M 508.40791221531686 357.308531123065 Q 508.40791221531686 357.308531123065 508.9084575010934 355.49076098051296 509.40900278686985 353.6729908379609 510.5925963318281 352.01126238000245 511.7761898767863 350.3495339220439 513.3875395133454 349.0749345966529 514.9988891499044 347.8003352712619 516.6446009809586 346.7846891051962 518.2903128120129 345.7690429391305 520.050655060842 344.8820269788715 521.810997309671 343.9950110186125 523.643036912146 343.2246936432447 525.4750765146212 342.4543762678769 527.3475866725792 341.8110930195161 529.2200968305372 341.16780977115525 531.9695702318343 340.61146397000743 534.7190436331315 340.0551181688596 536.788351715435 339.73732913191935 538.8576597977387 339.4195400949791 540.4691954342188 339.2734497082416 542.0807310706989 339.12735932150423 544.7672128090908 339.29612793435126 547.4536945474828 339.4648965471983 549.6958824086821 340.42545231816894 551.9380702698813 341.3860080891396 554.1668381309348 342.9625487996365 556.3956059919882 344.53908951013346 557.432791558713 347.09407548153837 558.4699771254379 349.6490614529433 558.3160433219202 352.15236094038335 558.1621095184024 354.6556604278234 557.2456256291644 357.1290346476742 556.3291417399263 359.60240886752496 554.9283525292109 361.9201392882195 553.5275633184955 364.237869708914 552.3334334415865 366.0466617454762 551.1393035646777 367.8554537820384 550.2616693941472 369.219646724206 549.3840352236167 370.5838396663735 550.4881754430535 369.51913090828407 551.5923156624904 368.4544221501947 553.8675624250407 368.28227913861525 556.1428091875911 368.1101361270358 558.8563136020657 367.96829515293945 561.5698180165402 367.8264541788431 563.0974293910123 367.8483890524193 564.6250407654843 367.8703239259954 566.1927877865551 367.9462896382814 567.760534807626 368.0222553505674 570.6887672363705 368.2352872424864 573.616999665115 368.4483191344053 576.0377481261648 368.7372239920405 578.4584965872148 369.0261288496757 580.4772182853936 369.55072558523227 582.4959399835725 370.0753223207888 584.4620188102797 371.57764084046164 586.428097636987 373.0799593601345 587.0242822985421 374.59989701098766 587.6204669600971 376.1198346618408 587.4955230221533 377.9529412552936 587.3705790842096 379.7860478487464 586.236542517175 382.24295550270654 585.1025059501405 384.6998631566666 583.3536559343563 386.6165579562013 581.604805918572 388.53325275573604 579.4351634168186 390.3108401375388 577.2655209150652 392.0884275193415 574.8857060841427 393.4895366259208 572.5058912532203 394.89064573250005 570.1177253004248 395.8986004692132 567.7295593476292 396.9065552059264 565.6842562700729 397.46275844965226 563.6389531925164 398.01896169337806 561.5679503778514 398.1978534427775 559.4969475631864 398.3767451921769 557.3215158312648 397.9945274550719 555.1460840993432 397.6123097179669 553.5255730733119 396.9775314394691 551.9050620472806 396.3427531609713 550.127297176185 394.8491673809307 548.3495323050895 393.35558160089 548.0182345568829 392.89991178559694 547.6869368086764 392.44424197030384 547.5184830776394 391.9066394042425 547.3500293466025 391.3690368381812 547.3620567828422 390.8057886519316 547.3740842190819 390.24254046568205 547.5653335468489 389.7126188930276 547.756582874616 389.1826973203731 548.1070302388084 388.7415852898564 548.4574776030007 388.30047325933964 548.9304310720782 387.99435531699805 549.4033845411558 387.6882373746564 549.9493257620586 387.54916414986036 550.4952669829613 387.4100909250643 551.0570357657463 387.4526234211618 551.6188045485312 387.4951559172592 552.1375835533481 387.7148409706812 552.6563625581651 387.93452602410326 553.0778354862655 388.30836255176536 553.4993084143659 388.68219907942745 553.7793469389195 389.17104629820017 554.0593854634731 389.65989351697294 554.168669477036 390.2125689940076 554.2779534905991 390.7652444710423 554.2050409281032 391.32388293800125 554.1321283656075 391.8825214049602 553.8846531915933 392.3886332668866 553.6371780175791 392.89474512881304 553.241050948093 393.2953403401626 552.8449238786068 393.6959355515122 552.341619522391 393.94907168790985 551.8383151661754 394.20220782430744 551.2805296221857 394.28138146545075 550.7227440781958 394.3605551065941 550.1688776401286 394.2574767513557 549.6150112020613 394.15439839611724 549.1230538321888 393.8798603755006 548.6310964623163 393.60532235488387 548.2525562271285 393.1880688721185 547.8740159919406 392.77081538935306 547.6485261539864 392.2545329942287 547.4230363160322 391.73825059910433 547.374205720869 391.1769941946759 547.3253751257057 390.6157377902474 547.4583163495371 390.0682710702158 547.5912575733685 389.5208043501842 547.8920516349663 389.04444722465394 548.1928456965641 388.5680900991237 548.629999378277 388.21271728488387 549.06715305999 387.857344470644 549.5948962559455 387.6601635951548 550.1226394519009 387.4629827196656 550.6857173101716 387.44463867264153 551.2487951684424 387.4262946256174 551.7882532886292 387.58870803362413 552.3277114088162 387.75112144163086 552.7870683833326 388.07728757797713 553.246425357849 388.4034537143234 553.2460539482547 388.4030864473417 553.2456825386605 388.40271918036 555.0537891284288 389.68388153943005 556.861895718197 390.9650438985001 558.8189564068057 391.28110458678464 560.7760170954144 391.59716527506924 562.25845981422 391.3499854095039 563.7409025330257 391.1028055439386 565.5175579138079 390.56687867937 567.2942132945901 390.03095181480137 569.3240094862624 388.97327895960245 571.3538056779346 387.9156061044035 573.1921314441577 386.6498062435574 575.0304572103807 385.38400638271133 576.6678903003599 383.85872181496813 578.3053233903391 382.3334372472249 579.532179802037 380.5746160954498 580.759036213735 378.81579494367475 579.9621893009696 377.2889042889731 579.1653423882041 375.76201363427134 577.3491319208952 375.3974258917134 575.5329214535861 375.0328381491555 572.9462418162568 374.7987186239334 570.3595621789276 374.56459909871126 567.4767063613103 374.46037431439834 564.593850543693 374.3561495300854 561.9361475068754 374.41432897592495 559.2784444700579 374.4725084217645 556.7697950184061 374.660146230885 554.2611455667541 374.84778404000554 551.6922183521951 374.97973779302544 549.1232911376361 375.11169154604534 547.1172160937156 374.59423886740296 545.1111410497949 374.07678618876054 544.2371731247606 372.8062381359898 543.3632051997264 371.53569008321904 544.1143521416991 368.64510232278036 544.8654990836719 365.7545145623417 545.98088003197 364.20261146624364 547.0962609802679 362.65070837014554 548.3801017473891 360.7947889725801 549.6639425145104 358.9388695750146 550.6669474997641 357.0880368871056 551.6699524850177 355.2372041991966 552.1589097542951 353.65792412351186 552.6478670235725 352.0786440478271 552.559462244031 350.22024150527784 552.4710574644895 348.36183896272854 551.1500611711933 347.24240726093416 549.8290648778973 346.1229755591398 547.2284314108201 345.2183045745851 544.6277979437431 344.31363359003035 542.081710353787 344.21823130411076 539.535622763831 344.12282901819117 537.6578976111305 344.3750760954911 535.7801724584298 344.6273231727911 533.3036445209302 345.28552444708436 530.8271165834308 345.94372572137763 529.1061056684847 346.51140895165116 527.3850947535386 347.0790921819247 525.6932876679305 347.7647450911883 524.0014805823224 348.4503980004518 522.4019158720589 349.21585391280894 520.8023511617955 349.981309825166 519.3288914025215 350.8269396042035 517.8554316432475 351.67256938324095 515.7591946527982 353.36865447649745 513.6629576623488 355.0647395697539 513.115559832891 356.8001318112351 512.5681620034331 358.53552405271626 512.4645258162461 358.77552094528096 512.3608896290591 359.01551783784566 512.2028283036523 359.223737878058 512.0447669782454 359.4319579182703 511.8414670462779 359.59629934760994 511.6381671143104 359.7606407769495 511.40144437738013 359.8715520638216 511.1647216404499 359.9824633506937 510.90833443514964 360.0334983258942 510.6519472298494 360.08453330109467 510.3907967925975 360.072725809467 510.12964635534564 360.06091831783925 509.8789107618253 359.9869546113516 509.628175168305 359.91299090486393 509.40242718299237 359.7811697576125 509.1766791976798 359.6493486103611 508.989039304088 359.4673314736177 508.80139941049623 359.2853143368744 508.662773248057 359.0636800551788 508.5241470856178 358.8420457734831 508.44259161340545 358.5936757417007 508.3610361411931 358.34530570991825 508.34129136708447 358.08463520596587 508.32154659297584 357.8239647020135 508.36476008416986 357.56614390782846 508.4079735753639 357.30832311364344 508.4079428953404 357.3084271183542 Z" fill="#000000" />
  <path d="M 603.7403636920545 365.68238188801905 Q 603.7403636920545 365.68238188801905 604.2300310841631 367.47861375468483 604.7196984762718 369.27484562135055 605.5966941850832 371.3774432876063 606.4736898938945 373.48004095386204 607.7499326268351 375.63711591943155 609.0261753597755 377.79419088500106 610.0923723671006 379.29243717967523 611.1585693744256 380.7906834743494 612.1757057161972 381.98530595215243 613.1928420579687 383.17992842995545 614.5606812991879 384.38675794004394 615.928520540407 385.5935874501325 616.9789359131402 384.24131137937104 618.0293512858733 382.88903530860966 618.5420840737195 380.6763570973427 619.0548168615655 378.46367888607574 619.3273462963305 376.5686163106127 619.5998757310954 374.6735537351497 619.8180147878913 373.0299207673583 620.0361538446874 371.3862877995669 620.2727668268238 369.7539868120481 620.5093798089603 368.1216858245293 620.6806740132299 367.4537959835829 620.8519682174995 366.78590614263646 620.9675549105975 366.38295995388785 621.0831416036956 365.98001376513923 621.2918036891242 365.61643977163453 621.5004657745527 365.25286577812983 621.7900758021028 364.9497949174539 622.0796858296529 364.64672405677806 622.433411650916 364.4217708215932 622.7871374721791 364.19681758640843 623.1844205258037 364.063056269313 623.5817035794282 363.92929495221756 623.9994537556713 363.89449976724586 624.4172039319145 363.8597045822741 624.831141570905 363.9258978272115 625.2450792098955 363.99209107214887 625.6311462366065 364.15542559248956 626.0172132633174 364.3187601128302 626.3529714440172 364.5697428985777 626.688729624717 364.82072568432517 626.9546646781677 365.1447696041795 627.2205997316183 365.4688135240338 627.4012555000186 365.8470851301479 627.5819112684188 366.2253567362619 627.666788030021 366.63587086511535 627.7516647916232 367.0463849939688 627.7358295050551 367.46528254510474 627.7199942184872 367.88418009624064 627.5009082550861 366.3101973082223 627.281822291685 364.73621452020393 628.5966801592463 365.75395263017276 629.9115380268076 366.77169074014154 631.0374513362315 368.0048323418841 632.1633646456554 369.2379739436266 633.3675121468807 370.6385628746673 634.5716596481061 372.0391518057079 635.7977011202528 373.30635862046665 637.0237425923995 374.5735654352255 638.6143505452976 374.5945069367573 640.2049584981958 374.61544843828915 640.7668316953759 374.5312712101294 641.3287048925561 374.44709398196966 641.8880426966717 374.5467359226232 642.4473805007874 374.64637786327677 642.9456200960967 374.91940643525425 643.4438596914061 375.1924350072317 643.8288352607578 375.6102640469745 644.2138108301097 376.0280930867174 644.4452153297689 376.5469757834683 644.6766198294282 377.0658584802193 644.7302251471958 377.6314676786568 644.7838304649636 378.19707687709433 644.654024109919 378.7501931448357 644.5242177548743 379.30330941257705 644.2245904866559 379.78602133038123 643.9249632184376 380.2687332481854 643.4868860911222 380.6305007508347 643.0488089638067 380.992268253484 642.518148768265 381.19521418795364 641.9874885727232 381.39816012242335 641.4198055715093 381.42103599580196 640.8521225702954 381.44391186918057 640.30685332349 381.28432257148665 639.7615840766846 381.1247332737928 639.2958184183655 380.7993878466225 638.8300527600463 380.47404241945213 638.4925564775896 380.01700461491293 638.1550601951328 379.55996681037374 637.9811692384021 379.0190886072472 637.8072782816714 378.47821040412066 637.8151990797392 377.9101218930521 637.8231198778069 377.3420333819836 638.0120231210245 376.8062135800427 638.2009263642422 376.2703937781018 638.5510338331792 375.82294315999445 638.9011413021162 375.3754925418871 639.3757966523556 375.0632593054447 639.8504520025948 374.75102606900225 640.3999586936695 374.6067011165018 640.9494653847443 374.4623761640014 641.5162899210432 374.5010703560678 642.0831144573419 374.53976454813426 642.6079101602875 374.7574265926439 643.1327058632329 374.9750886371536 643.5605264841938 375.3489292605891 643.9883471051548 375.7227698840247 644.2743997121831 376.21364787442803 644.5604523192113 376.7045258648314 644.6747871288404 377.2610461670282 644.7891219384695 377.81756646922497 644.7197680659499 378.38146126066806 644.6504141934302 378.94535605211115 644.4046330075221 379.45758539928266 644.1588518216141 379.9698147464542 643.7623766773622 380.37674810148985 643.3659015331104 380.7836814565256 642.8602434827772 381.0427127897333 642.354585432444 381.30174412294093 642.3550869046242 381.30158290091964 642.3555883768042 381.30142167889835 638.8567946927844 381.6378184706441 635.3580010087646 381.9742152623899 633.6380885315554 380.77419156382325 631.9181760543461 379.5741678652566 630.5977286006452 378.11861374931334 629.2772811469442 376.66305963337004 628.1073493801628 375.2833882460485 626.9374176133812 373.9037168587269 625.8717268359372 372.5358760571587 624.8060360584933 371.16803525559044 622.8289746983178 368.97714240250843 620.8519133381421 366.78624954942643 620.9674597360435 366.38329180402326 621.0830061339448 365.9803340586201 621.2916318609307 365.61673920072474 621.5002575879167 365.2531443428294 621.7898373069328 364.9500445226662 622.0794170259488 364.646944702503 622.4331203501198 364.4219560958609 622.7868236742908 364.19696748921876 623.1840933497972 364.0631664444868 623.5813630253037 363.9293653997549 623.9991097199396 363.89452843993956 624.4168564145755 363.85969148012424 624.8308006708207 363.9258433309668 625.2447449270661 363.99199518180944 625.6308282852988 364.1552910946308 626.0169116435313 364.3185870074522 626.3526949208308 364.5695362161268 626.6884781981304 364.82048542480135 626.9544456546433 365.14450274953015 627.2204131111563 365.4685200742589 627.4011067058137 365.8467736129048 627.5818003004712 366.2250271515507 627.6667181130617 366.6355327906754 627.7516359256524 367.04603842980015 627.7358425289186 367.4649375623702 627.7200491321848 367.8838366949403 627.3816503860287 369.4097798442611 627.0432516398727 370.93572299358186 626.7956338775751 372.4698341654205 626.5480161152776 374.00394533725915 626.2507245774291 375.82735749651886 625.9534330395805 377.6507696557786 625.5598636369886 379.79187384585316 625.1662942343966 381.93297803592776 624.4756953529304 383.9857162195883 623.7850964714643 386.0384544032489 622.4672220383529 387.79441718771716 621.1493476052416 389.5503799721854 619.7313981562686 390.42987940505066 618.3134487072956 391.309378837916 615.2764555063244 390.93901908421776 612.2394623053532 390.56865933051955 610.9336562645285 389.34314771735035 609.6278502237038 388.11763610418114 608.57713590505 386.80650018839003 607.5264215863962 385.4953642725989 606.4954515641002 383.91793187306996 605.4644815418044 382.340499473541 604.3232461673944 380.3477447111096 603.1820107929843 378.35498994867817 602.4533194690151 376.86482996091286 601.7246281450459 375.37466997314755 600.9336049711059 372.91185446715826 600.1425817971658 370.449038961169 599.7077008494307 368.6382723842312 599.2728199016955 366.82750580729345 599.236762972544 366.5518898310425 599.2007060433926 366.27627385479155 599.2316582084081 366.0000380280322 599.2626103734237 365.7238022012728 599.3587726913213 365.4630013632351 599.4549350092187 365.2022005251974 599.610718521564 364.97199243284183 599.7665020339091 364.7417843404862 599.972852595645 364.5555486989567 600.1792031573808 364.3693130574273 600.424127664164 364.2378738909599 600.669052170947 364.1064347244925 600.9383155989353 364.0374312836178 601.2075790269238 363.96842784274315 601.4855317730314 363.96587061068703 601.7634845191392 363.9633133786309 602.0339719567028 364.0273509818405 602.3044593942665 364.0913885850502 602.5517607807061 364.21829915501826 602.7990621671457 364.3452097249864 603.0088043342621 364.52761721342347 603.2185465013785 364.7100247018606 603.3785392245641 364.9373275769684 603.5385319477496 365.16463045207615 603.6394764424156 365.4236178600736 603.7404209370816 365.68260526807103 603.740392314568 365.68249357804507 Z" fill="#000000" />
  <path d="M 646.8467034488 326.27235490889706 Q 646.8467034488 326.27235490889706 646.102692779644 327.1999201064731 645.358682110488 328.12748530404906 645.3625385259534 330.60469384707505 645.3663949414188 333.08190239010105 645.8050905223874 335.928577004394 646.2437861033562 338.7752516186869 646.5470133979053 340.4785449063826 646.8502406924543 342.1818381940782 647.2629343134834 343.8722449639116 647.6756279345125 345.562651733745 648.1030281128644 347.3773125552907 648.5304282912163 349.1919733768364 648.9820242565073 350.92843353356045 649.4336202217984 352.66489369028454 649.9277834100137 354.3115735890283 650.4219465982289 355.95825348777197 650.9652609998941 357.57712413419165 651.5085754015594 359.1959947806114 652.0566305081647 360.81290422806194 652.6046856147702 362.4298136755125 653.1701231655643 363.9398520391595 653.7355607163585 365.4498904028066 654.3390166676013 366.892333004898 654.9424726188442 368.3347756069894 656.0548639066021 370.72147164212686 657.1672551943599 373.10816767726436 657.993472805315 374.93852143819333 658.8196904162702 376.76887519912236 659.8457892766427 378.6227433031407 660.8718881370152 380.476611407159 658.9659830926037 380.4917748118326 657.0600780481923 380.5069382165062 657.716114496099 378.91761146556166 658.3721509440055 377.3282847146171 658.5977745157793 376.86312053026916 658.823398087553 376.39795634592116 659.1857424315317 376.02918773157523 659.5480867755106 375.6604191172293 660.0092143432304 375.426656244153 660.4703419109502 375.19289337107665 660.9819725243447 375.11861127378836 661.4936031377392 375.04432917650007 662.0021689365288 375.1373052101945 662.5107347353185 375.2302812438889 662.9629887461215 375.4807807932949 663.4152427569245 375.7312803427009 663.7638338654265 376.1130760388703 664.1124249739283 376.4948717350397 664.3208555990499 376.9679894677992 664.5292862241714 377.44110720055875 664.575733624442 377.9560114183975 664.6221810247126 378.47091563623627 664.5017821450631 378.97369573162507 664.3813832654134 379.47647582701387 664.1067439003251 379.91449059124443 663.8321045352368 380.352505355475 663.4319794987323 380.6798945271077 663.0318544622279 381.0072836987404 662.548136951252 381.189769545083 662.0644194402762 381.3722553914256 661.5477548059171 381.3907315961944 661.031090171558 381.4092078009632 660.5355733374195 381.26173990064166 660.0400565032808 381.1142720003201 659.6175682127005 380.8162999229997 659.1950799221203 380.51832784567927 658.8898548106483 380.10104934651235 658.5846296991765 379.6837708473454 658.4286249165556 379.1908750953456 658.2726201339347 378.69797934334576 658.2821694220863 378.18107265385936 658.2917187102381 377.6641659643729 658.4658222561723 377.1773686042391 658.6399258021064 376.69057124410534 658.9603549186048 376.2848510254323 659.2807840351032 375.8791308067593 659.7139897090834 375.59696674354177 660.1471953830636 375.31480268032425 660.6478208661047 375.1857374244652 661.1484463491457 375.05667216860616 661.664076021021 375.094218886464 662.1797056928963 375.13176560432174 662.6563529908474 375.3319931446253 663.1330002887984 375.53222068492886 663.520760114907 375.8741651713534 663.9085199410158 376.216109657778 664.1667937391301 376.6639694123304 664.4250675372442 377.1118291668828 664.5268139725235 377.6187131550379 664.628560407803 378.1255971431929 664.5631266016154 378.63843447758643 664.4976927954278 379.15127181198 664.4978295194612 379.1508123963377 664.4979662434945 379.1503529806954 662.6667743238829 382.25772824228363 660.8355824042715 385.36510350387186 658.1753573626295 384.51426281842436 655.5151323209876 383.66342213297685 654.4303915233879 381.3711741519662 653.3456507257882 379.0789261709556 652.6462783965746 377.2577953304509 651.946906067361 375.43666448994617 650.8846808570497 372.93511010188763 649.8224556467385 370.43355571382904 649.2016494917948 368.88928572021496 648.580843336851 367.3450157266008 648.0063868234558 365.7543192746401 647.4319303100606 364.1636228226795 646.8932689145295 362.538224248112 646.3546075189985 360.9128256735445 645.7913239239087 359.20966232227 645.2280403288189 357.50649897099544 644.7138307029784 355.77018613389623 644.199621077138 354.03387329679697 643.7289571352757 352.24399096959826 643.2582931934134 350.4541086423996 642.821377206956 348.65831446386045 642.3844612204985 346.8625202853213 641.923841416057 344.99807156897157 641.4632216116157 343.1336228526219 641.1619757956828 341.41275917432154 640.8607299797499 339.6918954960211 640.5831669768218 337.9771859800815 640.3056039738938 336.2624764641419 640.1854082404064 333.29469775610283 640.0652125069191 330.32691904806376 640.8901853642312 327.7078574359722 641.7151582215433 325.0887958238807 642.5738758238717 324.18589990085115 643.4325934262 323.2830039778217 643.6362521632286 323.1004527530845 643.8399109002571 322.91790152834733 644.0813400406519 322.78939549351105 644.3227691810466 322.6608894586748 644.5879368518245 322.5938973905219 644.8531045226022 322.52690532236903 645.1265991662785 322.5253208030482 645.4000938099548 322.52373628372743 645.6660199049891 322.5876514055761 645.9319460000233 322.65156652742473 646.1748479092778 322.7772665405579 646.4177498185321 322.9029665536911 646.6235100716281 323.08314576743953 646.829270324724 323.26332498118796 646.985930126084 323.48751137118296 647.1425899274439 323.71169776117796 647.2410442020521 323.9668616038996 647.3394984766603 324.2220254466212 647.3740250574508 324.49333660754166 647.4085516382413 324.76464776846217 647.3771438387163 325.0363376301613 647.3457360391913 325.30802749186046 647.2502192821348 325.564305426811 647.1547025250783 325.8205833617616 647.0006282488984 326.04655448434306 646.8465539727184 326.27252560692455 646.8466287107592 326.27244025791083 Z" fill="#000000" />
  <path d="M 663.8285414903382 331.5336815988501 Q 663.8285414903382 331.5336815988501 663.5974901633543 330.08614575084835 663.3664388363704 328.63860990284667 662.8347463239179 326.67471315620037 662.3030538114654 324.71081640955407 662.2799179553502 324.3960183072066 662.2567820992351 324.0812202048591 662.3096570397786 323.7700331971896 662.3625319803219 323.4588461895201 662.4883446234951 323.1693564800354 662.6141572666684 322.87986677055073 662.8055953757389 322.6288995147677 662.9970334848094 322.3779322589847 663.2429706678835 322.1800736856011 663.4889078509575 321.98221511221755 663.7750502273993 321.84896477081475 664.0611926038413 321.715714429412 664.3709095652879 321.6548168360931 664.6806265267345 321.5939192427743 664.9959173088346 321.6089137685243 665.3112080909347 321.62390829427426 665.6137479786187 321.71392345655204 665.9162878663028 321.80393861882976 666.1884932270839 321.9637427321743 666.4606985878648 322.12354684551883 666.6867488333846 322.34385208735426 666.9127990789045 322.5641573291897 667.0795561582727 322.8321595485095 667.246313237641 323.1001617678293 667.3440852215696 323.40028466305466 667.4418572054982 323.70040755827995 668.4165201794397 325.9558397483062 669.3911831533812 328.2112719383324 670.1783159727945 330.7508394849112 670.9654487922078 333.29040703148996 671.6503720540713 335.98243750421324 672.3352953159348 338.6744679769365 673.0016141181693 341.534953854263 673.6679329204037 344.39543973158953 673.9934930312904 346.00273178407497 674.3190531421772 347.6100238365604 674.5912205266053 349.1577241129664 674.8633879110334 350.70542438937235 675.1287705594561 352.26397650409274 675.3941532078788 353.8225286188131 675.9239897683501 356.597683138119 676.4538263288214 359.37283765742484 676.9436053514127 361.9109245180016 677.4333843740039 364.4490113785784 677.8464121541365 366.44180164150146 678.2594399342692 368.43459190442456 678.6052206823778 369.98073404001315 678.9510014304864 371.5268761756017 679.2628514726164 373.2406675785775 679.5747015147463 374.9544589815533 679.5910744257674 375.3459999864699 679.6074473367886 375.73754099138654 679.5296396306113 376.121622221865 679.451831924434 376.5057034523435 679.284365788597 376.86000208922246 679.11689965276 377.2143007261014 678.8695082269467 377.51822491595874 678.6221168011332 377.82214910581604 678.3091784866352 378.0580347604574 677.9962401721373 378.29392041509885 677.6359429584968 378.44805784919356 677.2756457448562 378.6021952832882 676.8889301230583 378.6656260219245 676.5022145012605 378.72905676056075 676.111556401414 378.6980942062288 675.7208983015674 378.6671316518968 675.3490027907903 378.5435753497091 674.9771072800133 378.4200190475214 674.6455889428655 378.21105009556646 674.3140706057176 378.0020811436115 674.0421973035303 377.7198448271953 673.770324001343 377.437608510779 673.5738970232134 377.0985084178724 673.3774700450837 376.75940832496576 673.2679057362096 376.3831529689011 673.1583414273356 376.0068976128363 672.2716633471698 376.509502835431 671.384985267004 377.0121080580258 670.9489802172116 376.77911692937437 670.512975167419 376.546125800723 670.1741917474966 376.1861104345779 669.8354083275742 375.8260950684329 669.629317251018 375.3767491686644 669.4232261744619 374.9274032688959 669.3714052313901 374.4357734698255 669.3195842883184 373.9441436707551 669.42745914515 373.4617037421232 669.5353340019816 372.97926381349123 669.7916101327302 372.55652534317727 670.0478862634787 372.1337868728633 670.4257314896045 371.81501069030134 670.8035767157303 371.49623450773936 671.2634305423164 371.3147965633923 671.7232843689027 371.1333586190453 672.2169999789161 371.1082555135813 672.7107155889295 371.08315240811726 673.1866008276734 371.21701244330495 673.6624860664173 371.3508724784927 674.0707156237738 371.62968047331236 674.4789451811304 371.908488468132 674.776777314682 372.3030531519278 675.0746094482337 372.69761783572363 675.2308610549776 373.1666281819472 675.3871126617216 373.63563852817083 675.3854241571853 374.12998902976585 675.3837356526491 374.62433953136093 675.2242838237032 375.09227156031454 675.0648319947575 375.56020358926816 674.7643114899838 375.9527245386269 674.4637909852103 376.34524548798566 674.0536663807884 376.62125831073615 673.6435417763666 376.89727113348664 673.166753226642 377.0278772142266 672.6899646769173 377.1584832949666 672.1964320689058 377.1300081425659 671.7028994608944 377.1015329901652 671.2442957889349 376.91695796059696 670.7856921169754 376.73238293102867 670.4100333065817 376.4110330786117 670.034374496188 376.08968322619467 669.7809921239725 375.6652039653052 669.5276097517572 375.24072470441564 669.4230330189773 374.7575591257204 669.3184562861976 374.27439354702506 669.3736344043812 373.7831292141567 669.4288125225647 373.2918648812884 669.6379683281722 372.8439372995796 669.8471241337796 372.3960097178707 670.188358958752 372.03831702336765 670.5295937837244 371.68062432886455 670.9671802518101 371.45061704110344 671.4047667198956 371.22060975334233 671.8928894123742 371.14236969606776 672.3810121048527 371.0641296387932 672.8685644469699 371.1458485666552 673.356116789087 371.22756749451725 673.3556829485415 371.227419659652 673.355249107996 371.2272718247867 676.4649489843646 373.09070499679956 679.5746488607331 374.95413816881245 679.5910609257728 375.3456775344803 679.6074729908125 375.7372169001481 679.5297036931472 376.12130590947675 679.451934395482 376.50539491880545 679.284503690346 376.85971030052644 679.11707298521 377.21402568224744 678.8697119530525 377.51797460972773 678.622350920895 377.82192353720797 678.309436196527 378.0578404845013 677.9965214721592 378.2937574317947 677.6362396740635 378.44793089484 677.2759578759678 378.6021043578853 676.8892485991774 378.66557376776655 676.5025393223871 378.7290431776478 676.1118781282385 378.69811968928053 675.7212169340897 378.6671962009133 675.349309069542 378.54367708889436 674.9774012049942 378.4201579768755 674.6458619726088 378.2112221777991 674.3143227402234 378.0022863787226 674.0424212157639 377.72007725104766 673.7705196913043 377.43786812337277 673.5740588041476 377.0987876748594 673.3775979169908 376.7597072263461 673.2679959831289 376.38346282859357 673.1583940492671 376.00721843084096 672.9226255239498 374.3278951582661 672.6868569986324 372.6485718856911 672.4325856716106 371.1243559348276 672.1783143445888 369.600139983964 671.8463362116402 367.58967299247 671.5143580786914 365.57920600097594 671.0870403709345 363.06234538764954 670.6597226631775 360.5454847743231 670.147870199662 357.67390010004306 669.6360177361464 354.8023154257631 669.1244716911293 351.7871690143748 668.6129256461122 348.7720226029865 667.9833336419675 345.78783559317577 667.3537416378228 342.80364858336503 666.7440663359321 340.0411184048721 666.1343910340414 337.27858822637916 665.5683056247947 334.7972810440751 665.002220215548 332.315973861771 664.34974611194 330.0218302452465 663.6972720083321 327.72768662872204 663.0001881829669 326.21937998669637 662.3031043576017 324.71107334467064 662.2799370217921 324.3962775574828 662.2567696859825 324.0814817702949 662.3096135075608 323.77028947668725 662.3624573291391 323.4590971830797 662.4882410227124 323.16959489377814 662.6140247162856 322.8800926044766 662.8054377276735 322.6291062061375 662.9968507390613 322.3781198077985 663.2427681350482 322.18023664168595 663.4886855310352 321.9823534755734 663.7748145810124 321.8490745205993 664.0609436309894 321.71579556562517 664.3706545011281 321.6548670009147 664.6803653712668 321.59393843620427 664.995657651243 321.6089014328011 665.3109499312193 321.62386442939794 665.6134988189069 321.71384933723687 665.9160477065944 321.80383424507585 666.1882690464257 321.9636111370853 666.460490386257 322.1233880290948 666.6865626611707 322.3436706648042 666.9126349360845 322.5639533005136 667.0794188148409 322.8319388427855 667.2462026935972 323.0999243850574 667.3440046893263 323.4000375015837 667.4418066850556 323.70015061811006 667.8198799692644 325.86162515499495 668.1979532534733 328.02309969187985 668.3368054909425 329.4827461558899 668.4756577284118 330.9423926198999 668.4772736843963 331.22472894225643 668.4788896403808 331.5070652646129 668.4128890234024 331.7815836224581 668.346888406424 332.05610198030325 668.2171071754425 332.30684735378094 668.087325944461 332.5575927272586 667.9013069907188 332.7699917834811 667.7152880369766 332.98239083970356 667.4838427908053 333.14409893554364 667.2523975446339 333.30580703138367 666.9889776146154 333.4074256847133 666.7255576845967 333.5090443380429 666.4454730494401 333.54466746795595 666.1653884142837 333.58029059786907 665.8849176061444 333.5478477863814 665.6044467980051 333.5154049748937 665.33989079343 333.41678179973326 665.0753347888548 333.31815862457273 664.8420695952597 333.15908706931356 664.6088044016645 333.0000155140544 664.4203874030612 332.7897408249621 664.2319704044579 332.57946613586984 664.0993524056579 332.33020948775425 663.9667344068579 332.08095283963866 663.8976231721825 331.80720104059947 663.8285119375072 331.53344924156033 663.8285267139227 331.5335654202052 Z" fill="#000000" />
  <path d="M 625.3727052558288 344.1054882926889 Q 625.3727052558288 344.1054882926889 623.7193541752592 344.6777882242351 622.0660030946898 345.2500881557812 620.3824797007794 345.994047465481 618.6989563068691 346.73800677518074 618.2068573301872 347.1474495517434 617.7147583535051 347.5568923283061 617.4074147234319 347.64100473331604 617.1000710933587 347.72511713832597 616.7815288320992 347.733230794394 616.4629865708396 347.74134445046207 616.1517593695849 347.67298779151633 615.84053216833 347.60463113257066 615.5547085666398 347.4637770508408 615.2688849649495 347.322922969111 615.0250770439835 347.1177579104452 614.7812691230175 346.9125928517794 614.5936470105975 346.65504101902684 614.4060248981774 346.39748918627436 614.2854932002926 346.10251950405575 614.1649615024079 345.80754982183714 614.1185255270025 345.4923059419421 614.0720895515972 345.17706206204707 614.1024481597437 344.8598659735867 614.1328067678902 344.5426698851264 614.2381955158567 344.24195703966546 614.343584263823 343.94124419420456 614.5178779526259 343.6744920364502 614.6921716414288 343.40773987869585 614.9252403136858 343.19045205659 615.1583089859428 342.97316423448416 615.4366066794717 342.81796952645686 615.7149043730004 342.66277481842957 617.7051388326051 343.00765407824326 619.6953732922098 343.3525333380569 621.5303706521207 343.40664778714654 623.3653680120317 343.4607622362361 626.3556646235977 343.31408592223676 629.3459612351636 343.1674096082374 631.3716921075005 343.07925367674926 633.3974229798374 342.99109774526113 635.5716981199877 342.83112261348276 637.7459732601379 342.67114748170445 640.3288713661454 342.507399111382 642.9117694721529 342.3436507410595 645.6159231630696 342.1606933280274 648.3200768539864 341.9777359149952 651.0654297369365 341.74876475395513 653.8107826198867 341.51979359291505 656.5936229923682 341.2861443770586 659.3764633648497 341.05249516120216 662.0939222598249 340.7057625158219 664.8113811548001 340.3590298704416 667.4840771834162 339.9728639583785 670.1567732120322 339.58669804631546 672.503938071252 339.1555058448716 674.8511029304718 338.7243136434277 677.0201391620166 338.3002714912373 679.1891753935613 337.8762293390469 681.1556905176712 337.47868845155836 683.1222056417811 337.0811475640698 684.7067816788021 336.71616228727373 686.2913577158232 336.3511770104776 688.639510078816 335.7843883816369 690.9876624418088 335.2175997527962 693.6086308856686 334.41232042168474 696.2295993295286 333.6070410905733 696.6495697586506 333.5450661556721 697.0695401877726 333.4830912207708 697.4873144086018 333.5584619996146 697.905088629431 333.63383277845844 698.2769255707649 333.8386579306065 698.6487625120986 334.04348308275445 698.9357307480241 334.35631736070815 699.2226989839495 334.66915163866184 699.3947528644128 335.0572412109392 699.5668067448762 335.4453307832166 699.6059321831751 335.86804256915457 699.6450576214742 336.2907543550926 699.5471581738907 336.7038303191183 699.4492587263073 337.1169062831441 699.2245844908464 337.47709726278265 698.9999102553854 337.83728824242127 698.671984683808 338.1068821470234 698.3440591122306 338.37647605162545 697.9472160984449 338.52724632821327 697.5503730846591 338.6780166048011 697.1261621969647 338.6941775656165 696.7019513092703 338.7103385264319 696.2947875395896 338.5901981146113 695.887623769909 338.47005770279077 695.5401372724085 338.2261946511659 695.192650774908 337.98233159954106 694.9412234776034 337.6402784339906 694.6897961802989 337.29822526844015 694.5607525875885 336.89379504569047 694.431708994878 336.4893648229408 694.4385600049827 336.06490149407307 694.4454110150874 335.6404381652053 694.5874393254408 335.2403831527993 694.729467635794 334.84032814039335 694.9918028448101 334.50656730985236 695.2541380538262 334.1728064793113 695.6093135958714 333.9402846776972 695.9644891379166 333.7077628760831 696.3753180399815 333.6008251974047 696.7861469420463 333.4938875187263 697.2096153096364 333.52373036617007 697.6330836772265 333.5535732136138 698.0248542604703 333.71707203317453 698.4166248437141 333.88057085273533 698.7356791591286 334.1606072748456 699.0547334745431 334.4406436969559 699.2676664510823 334.8078978342983 699.4805994276215 335.17515197164073 699.5651169264329 335.59117221908986 699.6496344252441 336.007192466539 699.5968874418916 336.42842139436823 699.5441404585391 336.8496503221974 699.3596516161036 337.2319851504694 699.1751627736681 337.6143199787414 698.878248102653 337.91773015000945 698.5813334316377 338.2211403212775 698.2030799764761 338.4138587105174 697.8248265213144 338.60657709975726 697.8252014865179 338.60645745771694 697.8255764517214 338.6063378156767 694.9500228074819 339.29751979774244 692.0744691632425 339.98870177980825 689.6067321836804 340.3535090123469 687.1389952041183 340.7183162448855 685.5045102338571 340.9781735017036 683.870025263596 341.2380307585218 681.888399368733 341.55075168610904 679.9067734738699 341.8634726136963 677.7175631442284 342.2237992974148 675.5283528145869 342.58412598113335 673.1326678836995 342.9851228605047 670.736982952812 343.38611973987605 668.0518907574625 343.8181119160593 665.366798562113 344.25010409224257 662.5849321093381 344.6883502809942 659.8030656565633 345.1265964697459 657.0435624948168 345.47314288498114 654.2840593330703 345.81968930021645 651.5308545895282 346.195928418905 648.7776498459859 346.57216753759354 646.0862715756707 346.92656403125284 643.3948933053555 347.2809605249122 640.8246727801554 347.62145322295385 638.2544522549553 347.9619459209955 635.9909982398746 348.2284644507632 633.7275442247939 348.494982980531 631.6937687668078 348.6502204817708 629.6599933088218 348.8054579830106 627.8889906959536 348.90879305101964 626.1179880830854 349.0121281190286 623.3324116296918 348.94139015271196 620.5468351762983 348.87065218639526 619.1309191128393 348.2137222487661 617.7150030493802 347.5567923111369 617.4076678320843 347.6409354500893 617.1003326147883 347.7250785890416 616.7817911664871 347.73322409929517 616.4632497181859 347.7413696095487 616.1520156828213 347.67304407366487 615.8407816474568 347.60471853778097 615.5549439617876 347.46389303911553 615.2691062761182 347.3230675404501 615.0252778398653 347.1179268636022 614.7814494036126 346.9127861867542 614.5938015369475 346.6552531175007 614.4061536702823 346.39772004824715 614.285592476032 346.1027624206732 614.1650312817817 345.8078047930992 614.1185637822207 345.4925655583779 614.0720962826596 345.1773263236566 614.1024231710455 344.8601272009214 614.1327500594314 344.54292807818626 614.2381087355864 344.24220469535413 614.3434674117414 343.941481312522 614.5177344244571 343.67471172673254 614.6920014371727 343.40794214094313 614.9250483794822 343.19063101305653 615.1580953217916 342.97331988516993 615.4363774944582 342.8180973481493 615.7146596671247 342.6628748111287 616.2172658036629 342.3323727539359 616.7198719402011 342.0018706967431 618.6613094227557 341.3642945907934 620.6027469053103 340.7267184848438 622.2781067622407 340.22229722498366 623.9534666191712 339.7178759651236 624.2262916784273 339.66483783517975 624.4991167376834 339.6117997052359 624.7767067457382 339.62559621255366 625.054296753793 339.63939271987147 625.3205181663359 339.71922201079735 625.5867395788787 339.7990513017232 625.8261195949042 339.94027369411776 626.0654996109297 340.08149608651235 626.2641254526593 340.27590372829434 626.4627512943889 340.47031137007633 626.6090788185688 340.7066052799712 626.7554063427489 340.942899189866 626.8409309867986 341.20734595472845 626.9264556308484 341.47179271959084 626.9462066984375 341.749022681022 626.9659577660267 342.02625264245313 626.9187873241788 342.30015318206904 626.871616882331 342.574053721685 626.7602664793426 342.82870572725415 626.6489160763542 343.08335773282323 626.4798574028789 343.303960817817 626.3107987294036 343.5245639028108 626.0938574834868 343.6982966055645 625.87691623757 343.8720293083182 625.6247010546174 343.9887942759849 625.3724858716647 344.1055592436516 625.3725955637467 344.10552376817026 Z" fill="#000000" />
  <path d="M 706.3353002217144 340.1696180867621 Q 706.3353002217144 340.1696180867621 705.4801327707927 342.0574260580956 704.624965319871 343.94523402942906 704.0671272797972 345.41577206598646 703.5092892397236 346.88631010254386 702.7243021546424 349.5466885114805 701.9393150695612 352.2070669204171 701.5588033386123 354.6275645307809 701.1782916076633 357.04806214114467 701.1292706957823 359.12052209805 701.0802497839014 361.19298205495534 701.4609332575245 362.72449888003814 701.8416167311476 364.25601570512094 703.0249733941803 365.8375146678154 704.2083300572131 367.4190136305099 706.1891329101186 368.3970394984435 708.169935763024 369.3750653663772 710.334833788847 369.546417518701 712.4997318146701 369.7177696710248 714.5420340594663 369.07874837175876 716.5843363042626 368.4397270724927 717.9675528674901 367.2651565615853 719.3507694307176 366.09058605067787 719.8731865597715 364.5093308426046 720.3956036888253 362.9280756345313 719.8508853330966 360.7718125233714 719.306166977368 358.61554941221146 718.2416440908042 356.69905409451155 717.1771212042405 354.7825587768117 715.7714324774662 352.9811492423278 714.3657437506919 351.1797397078439 712.8684040602923 349.8815397442774 711.3710643698926 348.5833397807109 709.940996833878 347.68054827010917 708.5109292978633 346.7777567595074 706.8168738227109 346.2762443266994 705.1228183475585 345.77473189389144 703.103627108809 345.7360294025741 701.0844358700593 345.69732691125677 700.5374720529394 345.6224174473209 699.9905082358194 345.547507983385 699.4960974875337 345.301868293992 699.0016867392479 345.0562286045991 698.6115939956536 344.6655772300711 698.2215012520593 344.27492585554313 697.9765693263852 343.78016409791513 697.7316374007111 343.28540234028713 697.657510730231 342.7383318861872 697.583384059751 342.1912614320873 697.6878237264318 341.6491607024723 697.7922633931128 341.1070599728572 698.0643345362836 340.6266870572184 698.3364056794544 340.1463141415797 698.7476223786055 339.7779642109907 699.1588390777565 339.4096142804018 699.6661468359359 339.19185366983027 700.1734545941155 338.9740930592587 700.7237381551257 338.9297213621146 701.274021716136 338.88534966497053 701.8096662458785 339.01901260965786 702.345310775621 339.1526755543452 702.8102341504352 339.4503785952716 703.2751575252495 339.74808163619804 703.6206821450646 340.1786551863926 703.9662067648799 340.60922873658717 704.1561561107917 341.127591631684 704.3461054567035 341.64595452678094 704.3605917820532 342.19783403482904 704.3750781074028 342.7497135428772 704.2125846901022 343.27732773370184 704.0500912728016 343.8049419245265 703.7276312165362 344.25304945307164 703.4051711602708 344.70115698161686 702.9565061180529 345.022840871355 702.5078410758349 345.3445247610932 701.9799463960205 345.50610462385254 701.4520517162063 345.66768448661185 700.9001981111228 345.6522428681084 700.3483445060394 345.6368012496049 699.8303111938144 345.4459548913722 699.3122778815892 345.2551085331395 698.88230308676 344.9088390992631 698.4523282919308 344.56256966538666 698.1554304890183 344.09713165699964 697.8585326861058 343.63169364861255 697.7257971534484 343.09581854805674 697.593061620791 342.5599434475009 697.6383858036968 342.00973751926176 697.6837099866025 341.45953159102265 697.9023484311567 340.9526015410271 698.1209868757109 340.44567149103153 698.4900480790537 340.03509302933065 698.8591092823966 339.6245145676298 699.3399524391155 339.35327536754585 699.8207955958344 339.08203616746187 700.3630763004905 338.97853504484385 700.9053570051467 338.8750339222258 700.9048453331686 338.87504735314076 700.9043336611907 338.87506078405573 704.4990852780588 339.0979940601818 708.0938368949271 339.3209273363079 709.9566196789817 340.0928299131821 711.8194024630365 340.8647324900562 713.6823222571618 342.08992536700146 715.5452420512872 343.31511824394676 717.5445019354627 345.09454558597014 719.543761819638 346.8739729279935 721.2514007819035 349.0341976741595 722.959039744169 351.1944224203255 724.3960140925576 353.759853238401 725.8329884409462 356.3252840564765 726.5616731622982 359.02941035245044 727.2903578836502 361.73353664842443 726.9869339263116 364.1356704848663 726.683509968973 366.5378043213082 725.605065699608 368.54701914765633 724.5266214302429 370.5562339740045 722.7732625714955 372.11289397801363 721.019903712748 373.6695539820227 719.0527839085885 374.56178060546216 717.085664104429 375.4540072289016 714.8342450138314 375.8792365412272 712.5828259232338 376.30446585355276 710.3441319722529 376.1366046552581 708.105438021272 375.9687434569635 705.8592107168829 375.1772202306329 703.6129834124938 374.3856970043022 701.6795610217398 373.06399478205765 699.7461386309858 371.7422925598131 698.343141248833 369.8502281792206 696.9401438666802 367.95816379862816 696.2580672263455 365.757196270803 695.5759905860107 363.55622874297774 695.5327797448192 361.1131438637914 695.4895689036277 358.67005898460496 695.8824401011325 356.1189121953448 696.2753112986371 353.56776540608473 697.1014793024037 350.7515794012385 697.9276473061702 347.9353933963922 698.4669449939167 346.49087524601475 699.0062426816633 345.04635709563723 699.6751052336306 343.515544901024 700.3439677855978 341.98473270641074 701.2147830006917 340.10399896021494 702.0855982157856 338.22326521401914 702.2329241427057 337.98314247940925 702.3802500696257 337.74301974479937 702.5807616268152 337.54513348491037 702.7812731840046 337.3472472250213 703.0233166303385 337.20309859857554 703.2653600766723 337.05894997212977 703.5348678356775 336.97691690406907 703.8043755946825 336.8948838360083 704.0856838627426 336.8797340921027 704.3669921308027 336.864584348197 704.643751258161 336.91719843227406 704.9205103855193 336.96981251635106 705.1766351186902 337.0871324953721 705.4327598518612 337.2044524743932 705.6533642093189 337.37965970566535 705.8739685667766 337.5548669369375 706.0462310129006 337.7777783679471 706.2184934590247 338.0006897989568 706.3324020923525 338.25834980686017 706.4463107256803 338.51600981476355 706.495245171091 338.7934431877952 706.5441796165018 339.07087656082695 706.5252958017288 339.35195885831115 706.506411986956 339.63304115579535 706.4208074402013 339.9014358613957 706.3352028934466 340.16983056699615 706.3352515575805 340.16972432687913 Z" fill="#000000" />
  <path d="M 729.5307686566123 334.94179921407914 Q 729.5307686566123 334.94179921407914 730.6733795028256 335.7646094375391 731.8159903490388 336.587419660999 733.3963399079555 338.2995969445212 734.9766894668721 340.0117742280435 736.0451755750261 341.77597037104067 737.11366168318 343.5401665140378 737.9241552687673 345.4443285779814 738.7346488543546 347.348490641925 739.5055496167481 349.18854132958853 740.2764503791417 351.02859201725204 740.982849478304 352.675903801916 741.6892485774664 354.3232155865799 742.5615728286564 356.57163509885453 743.4338970798464 358.82005461112914 743.5627631311022 356.57516064878945 743.6916291823579 354.33026668644976 744.0277206813408 352.5675878462181 744.3638121803237 350.8049090059864 744.7623920745591 348.807139040258 745.1609719687945 346.8093690745295 745.4854851788905 345.11762264469087 745.8099983889866 343.4258762148522 746.1493475072331 341.7035785867255 746.4886966254795 339.9812809585987 749.2723622116598 337.1911449913638 752.0560277978402 334.40100902412894 754.3780019547627 335.6272992890032 756.6999761116851 336.8535895538774 758.1275409848943 338.56582844311816 759.5551058581034 340.27806733235894 760.6160272990804 341.67369939433934 761.6769487400575 343.06933145631973 763.0353940913019 344.3778468358282 764.3938394425463 345.68636221533677 766.1252423939145 347.02466775385057 767.8566453452828 348.36297329236436 769.4224656499157 349.3054644291707 770.9882859545485 350.24795556597707 772.44247223797 350.9316808052164 773.8966585213916 351.61540604445565 775.5999595655403 352.18106423626756 777.303260609689 352.74672242807947 777.8030831142707 353.00078536418994 778.3029056188524 353.25484830030035 778.695437174445 353.65520999858745 779.0879687300378 354.0555716968745 779.3321111791528 354.56031418184233 779.5762536282678 355.06505666681016 779.6464451920351 355.6213332670436 779.7166367558026 356.177609867277 779.6055283589674 356.7271782758887 779.4944199621323 357.2767466845005 779.2136446831728 357.762066944037 778.9328694042132 358.2473872035735 778.511824488954 358.6176461547492 778.0907795736947 358.9879051059248 777.5735485359085 359.20433653881264 777.0563174981222 359.4207679717005 776.4970545640008 359.46071145814483 775.9377916298795 359.5006549445892 775.3950517762567 359.3599283910153 774.8523119226338 359.21920183744135 774.3829201554531 358.9125393511565 773.9135283882725 358.6058768648716 773.5666301494653 358.16538608914095 773.2197319106581 357.7248953134103 773.0316475373997 357.19669574873103 772.8435631641413 356.6684961840518 772.8339851399612 356.10789046427703 772.8244071157812 355.5472847445023 772.9943382623396 355.012968436478 773.1642694088979 354.4786521284537 773.4959178902925 354.02656829067575 773.8275663716872 353.5744844528979 774.2862085043694 353.2519663825203 774.7448506370516 352.9294483121427 775.2824664686598 352.7702637362704 775.8200823002678 352.61107916039816 776.3803833113158 352.6318947461457 776.9406843223637 352.65271033189316 777.4650068490896 352.8513466819379 777.9893293758156 353.0499830319827 778.4227767112636 353.40564286804016 778.8562240467115 353.7613027040976 779.1534141404411 354.2367483474474 779.4506042341708 354.71219399079723 779.5804212049181 355.2576461570752 779.7102381756654 355.80309832335325 779.6590901523247 356.3614480267647 779.607942128984 356.91979773017624 779.3811843231008 357.432585609384 779.1544265172176 357.94537348859177 778.7758005309263 358.3589105172799 778.3971745446349 358.77244754596813 777.9063226186477 359.04343628806987 777.4154706926603 359.3144250301716 776.8637851532002 359.4144928928548 776.3120996137401 359.51456075553796 775.7573420824195 359.4332306071643 775.202584551099 359.3519004587906 775.2030799394549 359.3520580094962 775.203575327811 359.3522155602018 772.2911592538312 358.2835853811139 769.3787431798515 357.2149552020259 767.5238394017382 356.20863453215736 765.6689356236249 355.20231386228875 763.6821097764665 353.8322557375679 761.6952839293082 352.46219761284704 759.7679647828555 350.83963294301753 757.8406456364029 349.21706827318803 756.3834139567457 347.54990183452065 754.9261822770885 345.8827353958533 753.9723446626026 344.5465260732102 753.0185070481167 343.21031675056713 751.4091196066868 341.9814220047483 749.799732165257 340.7525272589295 751.7508279949958 340.2526935091451 753.7019238247346 339.7528597593607 753.2893815786865 341.5265141704111 752.8768393326383 343.30016858146143 752.5347256052246 344.8451200455411 752.1926118778108 346.39007150962067 751.820127840047 348.2366471864058 751.4476438022833 350.0832228631909 751.077970774789 352.049397239548 750.7082977472946 354.0155716159051 750.1787293611737 356.0867091436052 749.6491609750528 358.1578466713053 748.613682271973 360.35582492562594 747.5782035688931 362.5538031799465 746.1925682878862 363.8280026294124 744.8069330068794 365.10220207887835 743.1517810225873 365.20388022266707 741.4966290382954 365.30555836645584 739.4423472928686 363.1470806663747 737.3880655474419 360.9886029662935 736.6616719217128 358.7832979236388 735.9352782959837 356.57799288098414 735.3037898867645 354.8603311987499 734.6723014775454 353.1426695165157 734.0166509121782 351.30054748553067 733.3610003468111 349.45842545454565 732.7413715566042 347.6678003610167 732.1217427663973 345.87717526748776 731.4492181475654 344.4730494462663 730.7766935287334 343.0689236250449 729.8171679960974 341.7255603316323 728.8576424634613 340.3821970382197 727.7811126846746 339.48225335542963 726.7045829058877 338.5823096726396 726.5073005697418 338.3867684356562 726.3100182335958 338.1912271986729 726.1652664682508 337.95415416784545 726.020514702906 337.71708113701794 725.936706487765 337.4522550080369 725.8528982726241 337.18742887905586 725.8349045450889 336.9102413589804 725.8169108175538 336.6330538389049 725.8657773739142 336.35961507942545 725.9146439302745 336.08617631994593 726.0275306439787 335.8323785946109 726.1404173576828 335.57858086927575 726.3107632476265 335.3591749138062 726.48110913757 335.1397689583366 726.6990136926258 334.9675066571732 726.9169182476816 334.79524435600973 727.1697168448716 334.68013760218975 727.4225154420616 334.56503084836976 727.6955154150394 334.5137696518335 727.9685153880171 334.4625084552973 728.2458499655263 334.47807211919604 728.5231845430357 334.49363578309476 728.7887350264011 334.57511974655137 729.0542855097665 334.65660371000797 729.292618092418 334.79927212123783 729.5309506750694 334.9419405324677 729.5308596658408 334.9418698732734 Z" fill="#000000" />
  <path d="M 486.90369565607904 326.58821164149373 Q 486.90369565607904 326.58821164149373 490.4495782327694 326.1138735704816 493.99546080945976 325.63953549946945 497.313048438354 325.01668406316975 500.6306360672482 324.39383262687005 504.21102371964736 323.6987155609623 507.7914113720465 323.0035984950545 512.2995759662296 322.0913446522661 516.8077405604125 321.17909080947777 522.0835524535975 320.09269026709774 527.3593643467824 319.0062897247177 533.400390965606 317.81709116667065 539.4414175844297 316.6278926086236 546.1599656564402 315.2367984021519 552.8785137284508 313.84570419568024 561.1565926196357 312.0709945836859 569.4346715108206 310.2962849716915 578.5327063687013 308.3308139321834 587.6307412265819 306.3653428926753 597.1623367131449 304.21266449373024 606.6939321997078 302.0599860947852 616.5748819191906 299.8521756427491 626.4558316386735 297.64436519071296 636.4454938392246 295.3612199298069 646.4351560397755 293.0780746689009 656.32253000465 290.8154630697669 666.2099039695246 288.55285147063296 675.7743172184207 286.35324602425004 685.3387304673167 284.1536405778671 694.3923478227707 282.0085890095676 703.4459651782248 279.86353744126797 711.0950962684071 278.14198544993167 718.7442273585895 276.42043345859537 725.4173600005463 274.96182477773084 732.0904926425032 273.5032160968663 738.0006033732427 272.15836842477916 743.9107141039822 270.81352075269194 749.0492185777196 269.6751522955014 754.187723051457 268.53678383831084 758.2841619864644 267.64889079631587 762.3806009214716 266.76099775432095 765.7812078348286 266.00781786347466 769.1818147481857 265.25463797262836 771.8076218491301 264.5813732820422 774.4334289500746 263.908108591456 776.5947022984508 263.3219229816084 778.755975646827 262.7357373717608 780.5243057759328 262.2954614160767 782.2926359050387 261.85518546039253 784.5342314044435 261.21435123932105 786.7758269038484 260.57351701824956 787.4408349494881 260.36235219795174 788.1058429951278 260.15118737765386 788.3786255571649 260.1304952525485 788.651408119202 260.1098031274432 788.9212157177878 260.15499549337136 789.1910233163738 260.20018785929955 789.442174721202 260.3086381338302 789.6933261260301 260.41708840836077 789.9112244056514 260.5824934564426 790.1291226852728 260.7478985045244 790.3011035814379 260.9606449769914 790.4730844776032 261.17339144945834 790.5891524525464 261.42111451133485 790.7052204274897 261.6688375732113 790.758629605054 261.9371395485018 790.8120387826183 262.2054415237924 790.7996850188943 262.478728689087 790.7873312551701 262.75201585438157 790.7099325514856 263.01440474679293 790.6325338478011 263.2767936392043 790.4945886204509 263.5130342039772 790.3566433931009 263.7492747687501 790.16616902518 263.9456366931603 789.9756946572592 264.14199861757044 789.7437615279805 264.2870693373451 789.5118283987019 264.4321400571197 789.2519164724365 264.51748805520936 788.9920045461712 264.60283605329903 786.8592509429668 265.2928038345183 784.7264973397623 265.9827716157375 783.2294765758616 266.35046055792793 781.7324558119609 266.7181495001184 780.0775513075209 267.1165188725463 778.4226468030811 267.51488824497414 776.56397520681 267.9261312601843 774.7053036105391 268.33737427539444 771.2487516867418 269.04905886227175 767.7921997629445 269.7607434491491 767.4283441300049 269.7903026414118 767.0644884970654 269.81986183367445 766.7102421694381 269.7316903709917 766.3559958418108 269.643518908309 766.0484485035103 269.44684836609866 765.7409011652097 269.25017782388835 765.5122531037406 268.9655996598359 765.2836050422715 268.68102149578345 765.1577957700268 268.33833111878647 765.0319864977822 267.9956407417895 765.0221882787765 267.63071792478104 765.0123900597708 267.26579510777265 765.1196287701204 266.91684736602383 765.2268674804699 266.567899624275 765.4399151988929 266.2714618784601 765.6529629173159 265.9750241326452 765.9495134914544 265.7621334930031 766.2460640655927 265.54924285336097 766.5950685720525 265.44218902605974 766.9440730785121 265.3351351987585 767.3089906533387 265.34512674777613 767.6739082281653 265.3551182967938 768.0165319049454 265.48110910431063 768.3591555817254 265.60709991182745 768.6436125710563 265.8358987070381 768.9280695603873 266.06469750224875 769.1245771403967 266.37234899089765 769.3210847204061 266.68000047954655 769.409068495594 267.03429346956005 769.4970522707821 267.38858645957356 769.4673003166611 267.75242638137297 769.4375483625399 268.11626630317244 769.29317571656 268.451559020901 769.1488030705801 268.7868517386296 768.9049255868861 269.05849201623244 768.6610481031921 269.3301322938352 768.3431998187042 269.50967932254116 768.0253515342163 269.68922635124716 767.6668112482241 269.75788150975495 767.3082709622321 269.8265366682628 766.9465779373245 269.77711174335354 766.584884912417 269.7276868184442 766.2579085037796 269.5653566128027 765.9309320951421 269.4030264071612 765.6729068190725 269.1447869361691 765.4148815430029 268.8865474651771 765.2528227140177 268.559436469616 765.0907638850325 268.23232547405485 765.0416391053058 267.87059156150883 764.992514325579 267.5088576489628 765.0614669725159 267.15037445556396 765.1304196194527 266.7918912621651 765.3102303327171 266.4741920728926 765.4900410459815 266.1564928836201 765.7618835964292 265.9128408874553 766.033726146877 265.66918889129045 766.3691385477168 265.5250945165496 766.7045509485565 265.3810001418087 766.704222467806 265.38108171547043 766.7038939870555 265.38116328913213 770.163826330464 264.37413295315787 773.6237586738724 263.36710261718366 775.4658302681594 262.9731024187563 777.3079018624462 262.579102220329 780.4270534210517 261.9551606760467 783.5462049796572 261.3312191317645 785.8259126983914 260.74122541987697 788.1056204171257 260.15123170798944 788.3784009085864 260.1305123047314 788.6511814000471 260.1097929014734 788.9209935165206 260.15495828641576 789.190805632994 260.2001236713582 789.4419678815939 260.3085488302061 789.6931301301937 260.41697398905404 789.9110449492304 260.5823572464809 790.128959768267 260.7477405039078 790.3009619382194 260.9604697772214 790.4729641081719 261.17319905053506 790.589056854841 261.42091050437546 790.7051496015101 261.6686219582159 790.7585856090049 261.93691859124715 790.8120216164996 262.20521522427845 790.7996951815537 262.478503623583 790.7873687466079 262.7517920228875 790.7099962821995 263.0141886538573 790.6326238177912 263.27658528482704 790.4947022151873 263.51283964294146 790.3567806125833 263.7490940010559 790.1663258818073 263.945474971921 789.9758711510312 264.1418559427861 789.7439525299842 264.28694985514824 789.5120339089372 264.4320437675104 789.2521305187711 264.51741775636594 788.9922271286051 264.60279174522145 788.3068861265128 264.7115794267032 787.6215451244204 264.82036710818505 785.3274422676906 265.17600300212126 783.0333394109607 265.5316388960575 781.2897029339779 265.7988713343045 779.546066456995 266.0661037725516 777.3600194822216 266.51136096575 775.1739725074481 266.9566181589483 772.5022876256137 267.57021997874597 769.8306027437794 268.18382179854365 766.4233758097894 268.9384861324975 763.0161488757992 269.6931504664513 758.9264162582249 270.57962047292915 754.8366836406504 271.46609047940694 749.7065709961812 272.6026389693352 744.5764583517118 273.73918745926346 738.6538595717811 275.0869095484346 732.7312607918504 276.43463163760583 726.0672046954658 277.8913493107822 719.4031485990812 279.3480669839585 711.770527005298 281.0659745061513 704.1379054115149 282.78388202834407 695.0747178534104 284.9314013569972 686.0115302953061 287.07892068565025 676.4456109810499 289.2791933952405 666.8796916667937 291.47946610483075 656.9920241687365 293.74258853709955 647.1043566706793 296.0057109693684 637.10772243731 298.2910437602926 627.1110882039409 300.57637655121675 617.2336968197144 302.7842308655504 607.356305435488 304.992085179884 597.811260779132 307.14889832680893 588.2662161227761 309.3057114737339 579.1662569403328 311.2731982679134 570.0662977578895 313.24068506209295 561.7784393850769 315.0196639334307 553.4905810122643 316.7986428047685 546.7582995614499 318.1955529800342 540.0260181106355 319.5924631552999 533.9990169689518 320.783021934452 527.9720158272679 321.97358071360406 522.6927285091487 323.0664772921844 517.4134411910294 324.15937387076474 512.8959357659672 325.08146042173416 508.37843034090514 326.00354697270365 504.7914125482054 326.7109202146038 501.2043947555057 327.41829345650393 497.8105033499761 328.0686499135758 494.4166119444465 328.7190063706477 490.87340150355874 329.21368227668637 487.33019106267096 329.708358182725 487.1404117595709 329.71120785401376 486.9506324564708 329.7140575253025 486.7656861521162 329.67140580766807 486.58073984776155 329.6287540900337 486.4113756300511 329.54307990330904 486.2420114123407 329.45740571658433 486.0980727375653 329.33368844852725 485.95413406279 329.2099711804701 485.84398665349056 329.0554012845129 485.73383924419113 328.90083138855573 485.6638848729714 328.72439247431385 485.59393050175163 328.54795356007196 485.5682349199536 328.3599002655311 485.5425393381556 328.1718469709903 485.5625959742008 327.9831089624648 485.582652610246 327.7943709539394 485.647295771505 327.6159176933527 485.71193893276404 327.4374644327659 485.8174115556673 327.2796676320078 485.9228841785706 327.1218708312496 486.06305618931935 326.9939016477942 486.20322820006817 326.86593246433875 486.36995279481175 326.77522847314106 486.53667738955534 326.6845244819434 486.7202645270137 326.6363574032336 486.9038516644721 326.5881903245238 486.90377366027553 326.58820098300873 Z" fill="#000000" />
  <path d="M 500.8057010409168 324.2767019481259 Q 500.8057010409168 324.2767019481259 500.8624312624589 327.23756023591307 500.919161484001 330.19841852370024 501.2309530777651 332.67752762983787 501.54274467152925 335.15663673597555 502.00166628104205 337.8327537026835 502.46058789055485 340.50887066939146 503.0618341724756 343.35409054632623 503.6630804543963 346.19931042326107 504.3092594325268 349.17231787899743 504.95543841065734 352.1453253347338 505.65372524167987 355.03826336063196 506.3520120727024 357.93120138653006 507.1132340685117 360.73630767285823 507.87445606432095 363.5414139591864 508.65502647972676 366.40971674740797 509.4355968951325 369.2780195356295 510.28288140297116 372.12351440679714 511.13016591080986 374.9690092779648 511.9947556442507 377.7085442011563 512.8593453776915 380.4480791243479 513.7348414725841 383.0534944501506 514.6103375674767 385.6589097759533 515.3966664038608 387.94714764009126 516.1829952402447 390.2353855042292 516.8681952213668 392.25334888046814 517.5533952024889 394.271312256707 518.1853691781274 396.1086019361553 518.8173431537659 397.94589161560356 519.3967237892118 399.634924268183 519.9761044246577 401.32395692076244 520.4986922844403 402.7736172007042 521.0212801442229 404.223277480646 521.8784850088186 406.5899377317112 522.7356898734142 408.9565979827763 523.3200638303721 410.5741628855659 523.9044377873299 412.19172778835554 524.4178909635932 413.82237170420353 524.9313441398565 415.4530156200516 525.3679475034367 417.0445801957876 525.8045508670168 418.63614477152356 526.795996304499 418.8291340414595 527.7874417419812 419.0221233113954 528.278493535101 418.96843665686805 528.7695453282207 418.9147500023407 529.2520332524025 419.0206722541069 529.7345211765844 419.12659450587313 530.1579286188019 419.3810355762122 530.5813360610194 419.63547664655124 530.9013321503039 420.0117964882327 531.2213282395883 420.38811632991417 531.4044093009206 420.8469141561752 531.5874903622531 421.3057119824363 531.6144877601834 421.79895153975656 531.6414851581136 422.29219109707685 531.5095722579517 422.7682300736023 531.3776593577899 423.24426905012774 531.1006474750045 423.653266039354 530.823635592219 424.0622630285803 530.4305279440617 424.3613959377707 530.0374202959044 424.66052884696114 529.5693753569077 424.8184783815601 529.101330417911 424.976427916159 528.6073526167395 424.97665671819937 528.1133748155681 424.97688552023965 527.6451837584023 424.81936963408725 527.1769927012364 424.66185374793486 526.7836081153516 424.36308512845017 526.3902235294669 424.0643165089655 526.112832884849 423.6555763094757 525.835442240231 423.2468361099859 525.7030884105953 422.7709195372746 525.5707345809597 422.2950029645633 525.5972750472072 421.8017386094232 525.6238155134547 421.308474254283 525.8064714817632 420.84950702490625 525.9891274500717 420.3905397955295 526.3087747923429 420.01392368198754 526.6284221346141 419.6373075684455 527.0515936897334 419.38247437724317 527.4747652448527 419.12764118604076 527.9571548392928 419.0212720195663 528.4395444337327 418.91490285309186 528.9306457496172 418.96813459115396 529.4217470655016 419.02136632921605 529.870141665419 419.22862559478773 530.3185362653365 419.4358848603594 530.6772771163112 419.77547155362424 531.0360179672857 420.1150582468891 531.267544807522 420.55141755142006 531.4990716477581 420.987776855951 531.5791435559661 421.475221837376 531.6592154641739 421.962666818801 531.5794488904273 422.4501618588919 531.4996823166808 422.93765689898277 531.2684288423072 423.3741611383558 531.0371753679337 423.8106653777289 530.6786472927452 424.15047670729587 530.3201192175566 424.4902880368628 529.8718545256675 424.6978281207165 529.4235898337782 424.9053682045702 529.4240310771486 424.9052454934624 529.4244723205188 424.9051227823546 525.9862713853802 424.7753383535542 522.5480704502415 424.6455539247538 521.3596074557446 422.34373441000173 520.1711444612476 420.0419148952496 519.8734883112226 418.4676185542587 519.5758321611975 416.8933222132679 519.2324614394187 415.30359216830914 518.8890907176399 413.71386212335045 518.4754557316099 412.0325146012044 518.06182074558 410.3511670790584 517.4293796996028 407.95561821391436 516.7969386536257 405.56006934877024 516.3839994318059 404.05340594208553 515.9710602099863 402.5467425354008 515.5095723216251 400.8265657323149 515.048084433264 399.106388929229 514.53633283818 397.22889406685454 514.024581243096 395.35139920448 513.4690442425549 393.3156796571744 512.9135072420138 391.2799601098688 512.2308369533448 388.9702881022018 511.5481666646757 386.66061609453476 510.7079168862817 384.021076824799 509.86766710788766 381.3815375550633 509.0159510641099 378.62039052264515 508.16423502033217 375.85924349022696 507.29389632993605 372.98224034888466 506.42355763954 370.10523720754236 505.6284102125918 367.23593804020277 504.8332627856437 364.3666388728631 504.06232124613484 361.5252775954399 503.29137970662606 358.68391631801666 502.56031403267224 355.76476011073134 501.8292483587184 352.8456039034461 501.14297796852225 349.87015347825457 500.45670757832613 346.89470305306304 499.8081763943312 343.97734302117385 499.1596452103363 341.0599829892847 498.7086469551945 338.2841656117009 498.25764870005275 335.5083482341172 498.0238395552915 332.8864757805014 497.7900304105303 330.2646033268857 497.72336585668177 327.30345996672366 497.6567013028332 324.3423166065616 497.6756530280168 324.153432794849 497.69460475320045 323.96454898313635 497.7582100064091 323.78568972567734 497.8218152596178 323.60683046821833 497.9263773005465 323.44839107346013 498.0309393414752 323.2899516787019 498.1703810193923 323.1611406517121 498.30982269730947 323.03232962472225 498.4760396553429 322.94063346844166 498.64225661337633 322.848937312161 498.8255883141154 322.79968541150095 499.00892001485454 322.7504335108408 499.19871121123856 322.7464883885817 499.38850240762264 322.7425432663227 499.5737224264004 322.78413421315565 499.75894244517826 322.8257251599886 499.928826290156 322.9104349081296 500.09871013513373 322.9951446562706 500.2433841492593 323.1180498711775 500.38805816338487 323.24095508608445 500.4991138861598 323.39491251089225 500.61016960893477 323.5488699357001 500.6811524765335 323.7249315576454 500.75213534413217 323.9009931795906 500.7789198289547 324.0889262889336 500.8057043137772 324.27685939827654 500.80570267734697 324.2767806732012 Z" fill="#000000" />
  <path d="M 525.7858127641324 426.87062417787087 Q 525.7858127641324 426.87062417787087 529.9188088539163 425.941008144831 534.0518049437003 425.01139211179117 538.5258055062133 424.02688292308693 542.9998060687262 423.0423737343827 548.113027030669 421.74436659255184 553.2262479926115 420.44635945072093 559.1435423258575 418.97797750825566 565.0608366591035 417.50959556579033 572.7254339424535 415.64821525434076 580.3900312258033 413.7868349428912 589.1757443534548 411.8098534433963 597.9614574811062 409.83287194390147 607.5230241414175 407.78173052191914 617.0845908017288 405.7305890999368 627.2585457504099 403.7004012589367 637.4325006990908 401.67021341793657 647.7688909374315 399.70376680190486 658.105281175772 397.7373201858731 668.3580737370028 395.8783628193188 678.6108662982335 394.01940545276443 688.6118590453852 392.28691183106037 698.612851792537 390.5544182093563 707.1508999713856 389.14474791791594 715.6889481502343 387.7350776264756 723.3911496421179 386.5430879726805 731.0933511340013 385.3510983188854 738.1624937806018 384.33249969012024 745.2316364272024 383.3139010613551 751.5860709689438 382.34410494780127 757.9405055106852 381.3743088342475 763.7657139953299 380.55672878889305 769.5909224799746 379.73914874353864 774.8460809962171 379.0680089619205 780.1012395124595 378.39686918030236 784.3949009688924 377.84310477649444 788.6885624253252 377.28934037268647 792.3361220127719 376.8381236279 795.9836816002185 376.3869068831136 798.8172075422453 375.9907243951789 801.6507334842723 375.5945419072442 803.964510384717 375.2310961620717 806.2782872851617 374.86765041689915 808.0320968123535 374.574530941403 809.7859063395452 374.28141146590684 811.9372779931462 373.8447238535048 814.0886496467472 373.40803624110276 814.6464495259856 373.22691461863644 815.2042494052241 373.0457929961702 815.4730249808548 373.0407048454085 815.7418005564855 373.03561669464693 816.0039832197559 373.0950006185169 816.2661658830264 373.15438454238694 816.5065175652287 373.27478914444305 816.7468692474309 373.3951937464991 816.9514206975027 373.56962110561267 817.1559721475744 373.74404846472623 817.3128348256266 373.9623608545901 817.4696975036787 374.180673244454 817.5697545434928 374.4301823387119 817.6698115833067 374.6796914329699 817.7072476650275 374.9458957513405 817.7446837467483 375.21210006971114 817.7173230835472 375.47952780470314 817.6899624203462 375.7469555396952 817.5993952152542 376.00006377878583 817.508828010162 376.2531720178765 817.3603180333942 376.47725009831765 817.2118080566263 376.7013281787588 817.0139867150101 376.8833526719868 816.8161653733938 377.0653771652149 816.5805300525985 377.1947687991311 816.3448947318034 377.3241604330473 816.085140567745 377.393398959809 815.8253864036867 377.4626374865707 814.3282926420368 376.9189446699785 812.831198880387 376.3752518533862 811.1605018263094 375.67969815573565 809.489804772232 374.98414445808504 807.6682420817269 373.97019273486745 805.846679391222 372.95624101164987 804.2675482484574 371.93514080432635 802.6884171056929 370.9140405970029 802.3708849138022 370.6260984734281 802.0533527219116 370.33815634985325 801.8443865656052 369.96389640685345 801.6354204092988 369.58963646385365 801.5568991003038 369.168243816256 801.4783777913086 368.74685116865834 801.5385225314042 368.3224457379032 801.5986672714998 367.898040307148 801.7911808905214 367.5150574538675 801.9836945095429 367.132074600587 802.2884207807604 366.8306127306173 802.5931470519778 366.5291508606476 802.9781810543545 366.34077311135275 803.3632150567313 366.15239536205786 803.7882436285795 366.0968249335159 804.2132722004277 366.041254504974 804.6337947380782 366.1243096357225 805.0543172757286 366.20736476647096 805.4263049584822 366.42034956239604 805.7982926412359 366.6333343583212 806.0827982605131 366.953949255067 806.3673038797904 367.27456415181285 806.5345396221506 367.669240685056 806.7017753645109 368.06391721829925 806.7342316035833 368.4913326508247 806.7666878426556 368.9187480833502 806.6609664016414 369.3341519065458 806.5552449606273 369.7495557297415 806.3224149023085 370.1094550536627 806.0895848439899 370.469354377584 805.7540235369338 370.7360676480121 805.4184622298777 371.00278091844024 805.0153030315125 371.14838318555593 804.6121438331473 371.2939854526716 804.1835976179657 371.30323212067265 803.755051402784 371.3124787886736 803.3459870726406 371.1844017289793 802.936922742497 371.056324669285 802.5901694407403 370.8043335838545 802.2434161389835 370.5523424984239 801.9952790278414 370.2028209204209 801.7471419166993 369.85329934241787 801.6236010172103 369.442842273324 801.5000601177212 369.0323852042302 801.5140501946734 368.60396760752985 801.5280402716255 368.17555001082945 801.678096560269 367.7740273219883 801.8281528489124 367.3725046331471 802.0985644162151 367.0399163836786 802.3689759835178 366.70732813421006 802.7314306670014 366.47849640162826 803.0938853504852 366.2496646690464 803.5104340491104 366.14854819615834 803.9269827477356 366.0474317232703 804.3540127027981 366.0846174314795 804.7810426578606 366.1218031396888 805.1738437203403 366.2933976755297 805.5666447828199 366.46499221137066 805.5663111041886 366.4647763442932 805.5659774255571 366.46456047721585 807.0975139079637 367.45518601885635 808.6290503903705 368.4458115604968 810.1852511445222 369.5164599141782 811.7414518986739 370.5871082678596 813.47274023239 371.8164661714819 815.2040285661062 373.0458240751042 815.4728036315779 373.0407090468105 815.7415786970496 373.0355940185168 816.0037672974015 373.09495172382356 816.2659558977534 373.15430942913036 816.5063196192141 373.2746899954163 816.7466833406748 373.3950705617022 816.9512522324596 373.56947746479864 817.1558211242445 373.7438843678951 817.3127056327514 373.9621810703996 817.4695901412582 374.1804777729041 817.5696721314813 374.42997686021056 817.6697541217044 374.679475947517 817.7072168236698 374.94567652094844 817.7446795256352 375.2118770943799 817.7173456053445 375.4793075641011 817.6900116850536 375.7467380338223 817.5994697912382 375.9998553283679 817.5089278974228 376.25297262291355 817.3604403292055 376.4770655532319 817.2119527609882 376.70115848355033 817.0141496228104 376.8832027580024 816.8163464846325 377.06524703245447 816.5807241041789 377.19466222925575 816.3451017237252 377.32407742605704 816.0853544848183 377.3933419278889 815.8256072459114 377.4626064297208 815.255453995771 377.549637690371 814.6853007456305 377.6366689510213 812.4508221470703 377.7880402618995 810.21634354851 377.9394115727776 808.4588504953788 378.0594645383171 806.7013574422476 378.17951750385663 804.3793660930355 378.4082642526421 802.0573747438233 378.6370110014275 799.2047180395987 379.0008159217257 796.3520613353742 379.3646208420239 792.7122363185894 379.8149394827625 789.0724113018046 380.26525812350104 784.7769026416636 380.81936879960494 780.4813939815225 381.3734794757088 775.244729314466 382.0422911976056 770.0080646474096 382.7111029195024 764.2007290380787 383.52627296513907 758.3933934287479 384.3414430107757 752.0266218532307 385.3133568855602 745.6598502777135 386.28527076034464 738.6062704655071 387.3019398890666 731.5526906533007 388.3186090177886 723.8655474810798 389.5087374187197 716.1784043088588 390.6988658196508 707.6521971199618 392.10728881989144 699.1259899310646 393.5157118201321 689.1367971392189 395.247157621524 679.1476043473731 396.97860342291597 668.9078791192347 398.8365751992851 658.6681538910964 400.6945469756543 648.345434602061 402.66032147601436 638.0227153130257 404.62609597637436 627.8706060244988 406.654514203125 617.7184967359719 408.6829324298756 608.1726506460514 410.73442726909917 598.6268045561308 412.7859221083227 589.8674736666925 414.7619963164905 581.1081427772542 416.7380705246583 573.4531454523783 418.60438218160624 565.7981481275023 420.47069383855415 559.8918070544448 421.94639008000206 553.9854659813874 423.42208632145 548.8286182253735 424.7443546226963 543.6717704693597 426.0666229239425 539.2104100089234 427.06733861164207 534.7490495484872 428.06805429934167 530.6217551109273 429.0226652560479 526.4944606733676 429.97727621275413 526.3034389175633 429.99710532694434 526.112417161759 430.01693444113454 525.9222009369321 429.99047139571815 525.7319847121051 429.9640083503017 525.5536293941798 429.8927911787216 525.3752740762544 429.8215740071416 525.2191456846884 429.7097418547562 525.0630172931225 429.5979097023709 524.9381900173694 429.4519622591313 524.8133627416162 429.3060148158917 524.7270915488077 429.13443455405627 524.6408203559992 428.9628542922208 524.5981193319147 428.77561346466905 524.5554183078303 428.5883726371173 524.5587692379961 428.39635368954407 524.5621201681618 428.2043347419708 524.611328296359 428.0186978246309 524.6605364245562 427.83306090729104 524.7527417720621 427.6645952465425 524.8449471195679 427.49612958579394 524.9747907072531 427.3546264137547 525.1046342949383 427.2131232417155 525.2645696073859 427.10680672939304 525.4245049198335 427.0004902170706 525.6052365091695 426.93553948515637 525.7859680985055 426.8705887532421 525.7858904313189 426.8706064655565 Z" fill="#000000" />
  <path d="M 776.5050708785133 248.4600934653494 Q 776.5050708785133 248.4600934653494 777.4199344267349 249.88395924455574 778.3347979749566 251.3078250237621 779.0305386272398 252.71535638306187 779.7262792795232 254.12288774236163 780.3269686857072 255.66079334647324 780.9276580918913 257.19869895058486 781.4761363078471 258.85979226212623 782.0246145238029 260.52088557366767 782.6163087621094 262.25941771701673 783.2080030004158 263.99794986036574 783.8708897247656 266.1384465184341 784.5337764491153 268.2789431765024 785.2737735116464 270.50957896775833 786.0137705741774 272.7402147590143 786.770214951204 275.1819264292511 787.5266593282306 277.62363809948795 788.3051596510447 280.2042730569941 789.083659973859 282.7849080145003 789.9457078946009 285.5509486019633 790.8077558153428 288.3169891894263 791.7528055147316 291.16638396704343 792.6978552141203 294.01577874466057 793.6405685754073 296.91959313142667 794.5832819366942 299.82340751819277 795.5554712522027 302.8398298985165 796.5276605677111 305.8562522788402 797.4601063217017 308.9899939763575 798.3925520756922 312.1237356738747 799.2182411027518 315.30853390407884 800.0439301298115 318.493332134283 800.790504721916 321.62852676567087 801.5370793140205 324.76372139705876 802.1633649850356 327.92349868940585 802.7896506560508 331.083275981753 803.3305415640671 334.15324152477785 803.8714324720834 337.22320706780266 804.3760816286672 340.19522271538926 804.880730785251 343.16723836297587 805.413481120909 346.0050072608148 805.9462314565668 348.84277615865375 806.4727854223702 351.52775427149174 806.9993393881737 354.2127323843297 807.5110681861186 356.5504173003919 808.0227969840636 358.88810221645423 808.5512996165187 360.9552577579119 809.0798022489739 363.02241329936965 809.5865515560857 364.91797436256275 810.0933008631976 366.8135354257559 810.5857871716447 368.3867091689946 811.0782734800919 369.95988291223335 811.9304172223556 372.52007240690443 812.7825609646194 375.08026190157545 813.4975003926322 377.0674795323448 814.2124398206449 379.0546971631141 814.7659270654835 380.55117822711395 815.319414310322 382.04765929111386 815.8258597819513 383.5052271136211 816.3323052535804 384.9627949361284 816.5579749249907 385.69775768196274 816.783644596401 386.4327204277971 816.8525155392458 386.77642826695853 816.9213864820906 387.12013610611996 816.9059987967917 387.4703381972195 816.8906111114927 387.8205402883191 816.7918591310427 388.15688286936785 816.6931071505927 388.4932254504166 816.5167303447352 388.7961602748011 816.3403535388776 389.0990950991855 816.096602935856 389.3510155806791 815.8528523328345 389.60293606217266 815.555894729149 389.7892005705545 815.2589371254635 389.9754650789364 814.9260317109929 390.0852479122278 814.5931262965222 390.1950307455192 814.243621549597 390.22195132029117 813.8941168026718 390.2488718950631 813.5483259556045 390.1913655862449 813.2025351085373 390.1338592774267 812.8805555416066 389.9952683543889 812.5585759746759 389.85667743135105 812.27912115544 389.6450568050522 811.9996663362039 389.43343617875337 811.7789781918866 389.16108524993695 811.5582900475695 388.88873432112047 811.4091949834879 388.5714821385656 811.2600999194061 388.25422995601076 810.1913185743108 385.6252710803757 809.1225372292155 382.99631220474055 809.0145270329604 382.5496808471257 808.9065168367051 382.1030494895109 808.9467754428304 381.6453104626268 808.9870340489557 381.1875714357427 809.1713463707729 380.7666501365355 809.3556586925902 380.34572883732824 809.6647271813513 380.0056958369373 809.9737956701124 379.6656628365464 810.375260773458 379.4421196798727 810.7767258768037 379.218576523199 811.228554092437 379.1349282377559 811.6803823080703 379.0512799523128 812.1352671025434 379.11628453566726 812.5901518970165 379.1812891190217 813.0004667122703 379.3881405741369 813.4107815275239 379.5949920292521 813.7335662940885 379.922032954174 814.0563510606531 380.24907387909593 814.2578101282625 380.6620630026548 814.4592691958718 381.07505212621373 814.518309746967 381.53074937815444 814.5773502980622 381.98644663009514 814.4877907713586 382.4371403878471 814.398231244655 382.8878341455991 814.1694485462398 383.286336653754 813.9406658478246 383.68483916190894 813.5966135866145 383.9894271026686 813.2525613254045 384.2940150434284 812.8292618639694 384.4727979789918 812.4059624025343 384.6515809145553 811.9477353062266 384.68584022437494 811.4895082099188 384.7200995341946 811.0443299766821 384.6062482594888 810.5991517434453 384.49239698478294 810.213632651815 384.2423553840671 809.8281135601848 383.9923137833512 809.5426175608219 383.6322612782249 809.257121561459 383.2722087730986 809.1015401608604 382.8398429558932 808.9459587602618 382.40747713868774 808.9365813721397 381.9480668245981 808.9272039840175 381.4886565105084 809.0650124233837 381.0503020806923 809.2028208627497 380.6119476508761 809.4733865496245 380.2405449298496 809.7439522364992 379.86914220882306 810.1189468720445 379.6035771595184 810.4939415075899 379.3380121102137 810.9341030544751 379.2060894633954 811.3742646013604 379.0741668165772 811.8335080294354 379.0896989081915 812.2927514575103 379.10523099980577 812.722993858627 379.26659161576043 813.1532362597437 379.4279522317151 813.5094311409323 379.7182468729247 813.8656260221209 380.00854151413427 814.1104796852946 380.39737625503375 814.3553333484683 380.78621099593323 814.3551675908764 380.7858185362213 814.3550018332845 380.78542607650945 815.5692776632959 383.60893516809074 816.7835534933073 386.43244425967197 816.8524588065916 386.77614521002056 816.9213641198758 387.1198461603692 816.9060114548629 387.4700497884862 816.89065878985 387.8202534166033 816.7919404441518 388.1566058711684 816.6932220984536 388.49295832573347 816.5168755869603 388.7959107862838 816.340529075467 389.0988632468342 816.0968036657123 389.35080810212844 815.8530782559576 389.60275295742264 815.5561392802077 389.7890471606335 815.2592003044579 389.9753413638444 814.926305869935 390.0851574871283 814.5934114354122 390.19497361041215 814.243909382292 390.2219291355241 813.8944073291717 390.24888466063607 813.5486107332026 390.19141293119003 813.2028141372334 390.13394120174405 812.8808207128204 389.99538247735586 812.5588272884073 389.8568237529676 812.279351308506 389.6452310732087 811.9998753286046 389.4336383934499 811.779159950298 389.16130953480956 811.5584445719915 388.8889806761693 811.409317783437 388.57174340470704 811.2601909948826 388.25450613324483 811.0937109605802 387.4996778337454 810.9272309262778 386.744849534246 810.5238377472483 385.14474173394393 810.1204445682189 383.5446339336419 809.7236042245274 382.002137852547 809.3267638808359 380.459641771452 808.8160372153432 378.4457060759165 808.3053105498506 376.43177038038107 807.6698207240479 373.7401195791173 807.0343308982453 371.04846877785354 806.6533555315602 369.37685597194616 806.2723801648751 367.70524316603877 805.8842971986979 365.7661635006574 805.4962142325207 363.82708383527597 805.0796008313177 361.68517368898017 804.6629874301149 359.54326354268443 804.2562906341586 357.1707782456042 803.8495938382023 354.798292948524 803.3755180747894 352.10084756754793 802.9014423113764 349.4034021865719 802.3851465929959 346.5437472673944 801.8688508746152 343.6840923482169 801.3555383829099 340.72407540762595 800.8422258912046 337.764058467035 800.293289759129 334.73011389334613 799.7443536270534 331.6961693196573 799.1117172184405 328.6008823667959 798.4790808098276 325.5055954139344 797.7138678110794 322.410046982722 796.9486548123311 319.31449855150964 796.102924393083 316.19923081525553 795.2571939738349 313.0839630790014 794.2876210857776 310.00778968080795 793.3180481977204 306.9316162826145 792.2806480383737 303.95024326310437 791.243247879027 300.9688702435942 790.2132742636327 298.12056565763527 789.1833006482385 295.2722610716763 788.0974876083773 292.4410718865857 787.011674568516 289.60988270149505 785.9963162507654 286.8636157083911 784.9809579330148 284.1173487152871 784.0977906588244 281.5815379438167 783.214623384634 279.04572717234635 782.3820049874587 276.6691086461862 781.5493865902833 274.29249012002606 780.7258202778542 272.0263073597872 779.902253965425 269.7601245995483 779.2069113792063 267.6534432148072 778.5115687929876 265.54676183006615 777.9381623556922 263.75238488658874 777.3647559183967 261.9580079431113 776.9122131283406 260.3732559567201 776.4596703382845 258.7885039703288 775.541000634789 256.1481840167404 774.6223309312935 253.50786406315197 773.8110714326401 252.0246177207763 772.9998119339867 250.5413713784006 772.9007531730736 250.31652849393782 772.8016944121604 250.09168560947506 772.7593244047232 249.84966961149775 772.7169543972859 249.6076536135204 772.7337356901476 249.36253048320202 772.7505169830093 249.11740735288362 772.8254742466405 248.88342365807534 772.9004315102717 248.64943996326707 773.029208224988 248.44019484730484 773.1579849397044 248.23094973134263 773.3330965967963 248.0586045301975 773.5082082538881 247.8862593290524 773.7194773556176 247.76083075391256 773.9307464573471 247.63540217877272 774.1658940335954 247.56418014431853 774.4010416098436 247.4929581098643 774.6464008724306 247.48008204408455 774.8917601350175 247.46720597830483 775.1330707920736 247.51342423874766 775.3743814491296 247.5596424991905 775.5976185139288 247.66226887838738 775.8208555787279 247.76489525758427 776.0130445025752 247.91796510555446 776.2052334264225 248.07103495352462 776.355204180034 248.26565184351205 776.5051749336455 248.4602687334995 776.5051229060794 248.46018109942446 Z" fill="#000000" />
</svg>